<svg width="54" height="40" viewBox="0 0 54 40" fill="none" xmlns="http://www.w3.org/2000/svg">
<rect width="54" height="40" rx="4" fill="#153D7C"/>
<path d="M31.1 15.8333V12.3333H21.9V15.8333H19.6V10H33.4V15.8333H31.1ZM33.4 21.0833C33.7258 21.0833 33.9991 20.9713 34.2199 20.7473C34.4407 20.5233 34.5508 20.2464 34.55 19.9167C34.55 19.5861 34.4396 19.3088 34.2188 19.0848C33.998 18.8608 33.7251 18.7492 33.4 18.75C33.0742 18.75 32.8008 18.862 32.58 19.086C32.3592 19.31 32.2492 19.5869 32.25 19.9167C32.25 20.2472 32.3604 20.5245 32.5812 20.7485C32.802 20.9725 33.0749 21.0841 33.4 21.0833ZM31.1 28.6667V24H21.9V28.6667H31.1ZM33.4 31H19.6V26.3333H15V19.3333C15 18.3417 15.3354 17.5102 16.0062 16.839C16.6771 16.1678 17.4917 15.8326 18.45 15.8333H34.55C35.5275 15.8333 36.3471 16.1689 37.0087 16.8402C37.6703 17.5114 38.0008 18.3424 38 19.3333V26.3333H33.4V31ZM35.7 24V19.3333C35.7 19.0028 35.5896 18.7255 35.3688 18.5015C35.148 18.2775 34.8751 18.1659 34.55 18.1667H18.45C18.1242 18.1667 17.8508 18.2787 17.63 18.5027C17.4092 18.7267 17.2992 19.0036 17.3 19.3333V24H19.6V21.6667H33.4V24H35.7Z" fill="white"/>
</svg>
