<svg width="24" height="27" viewBox="0 0 24 27" fill="none" xmlns="http://www.w3.org/2000/svg">
<path d="M12.9398 13.2585L18.4665 7.16446C18.5757 7.02384 18.6328 6.84294 18.6263 6.65793C18.6198 6.47292 18.5503 6.29743 18.4315 6.16651C18.3128 6.03559 18.1536 5.95889 17.9859 5.95175C17.8181 5.9446 17.654 6.00753 17.5265 6.12796L11.9998 12.222L6.47315 6.12061C6.34762 5.98218 6.17735 5.90442 5.99982 5.90442C5.82228 5.90442 5.65202 5.98218 5.52649 6.12061C5.40095 6.25903 5.33042 6.44678 5.33042 6.64254C5.33042 6.8383 5.40095 7.02604 5.52649 7.16446L11.0598 13.2585L5.52649 19.3526C5.4567 19.4185 5.40002 19.4996 5.36 19.5908C5.31999 19.682 5.2975 19.7813 5.29395 19.8826C5.29041 19.9838 5.30588 20.0847 5.33939 20.1791C5.37291 20.2734 5.42375 20.3591 5.48872 20.4307C5.55369 20.5024 5.63139 20.5584 5.71694 20.5954C5.80249 20.6323 5.89404 20.6494 5.98585 20.6455C6.07767 20.6416 6.16776 20.6168 6.25047 20.5727C6.33318 20.5285 6.40672 20.466 6.46649 20.3891L11.9998 14.295L17.5265 20.3891C17.654 20.5095 17.8181 20.5724 17.9859 20.5653C18.1536 20.5582 18.3128 20.4815 18.4315 20.3505C18.5503 20.2196 18.6198 20.0441 18.6263 19.8591C18.6328 19.6741 18.5757 19.4932 18.4665 19.3526L12.9398 13.2585Z" fill="#153D7C"/>
</svg>
