<svg width="46" height="46" viewBox="0 0 46 46" fill="none" xmlns="http://www.w3.org/2000/svg">
<g clip-path="url(#clip0_5695_6866)">
<circle cx="23" cy="23" r="23" fill="white"/>
<g clip-path="url(#clip1_5695_6866)">
<path d="M15.7163 33.5442C12.4656 33.5442 9.56016 32.679 7.00016 30.9488C4.44016 29.2187 3.16016 26.9632 3.16016 24.1825C3.16016 20.9693 4.58237 18.343 7.42682 16.3039C10.2713 14.2647 14.4161 13.2451 19.8611 13.2451C24.3309 13.2451 28.9633 14.4964 33.7583 16.999C38.5938 19.5017 41.5399 22.7458 42.5963 26.7315L39.6097 28.2608C38.7563 25.5111 36.8465 23.1475 33.8802 21.1701C30.9544 19.1927 27.724 17.9105 24.1887 17.3235C25.164 18.1577 26.0173 19.1618 26.7487 20.3359C27.4802 21.5408 27.8459 22.7922 27.8459 24.0898C27.8459 26.9941 26.6065 29.2959 24.1278 30.9952C21.6897 32.6945 18.8859 33.5442 15.7163 33.5442ZM15.4116 30.0683C17.6465 30.0683 19.658 29.5276 21.4459 28.4462C23.2338 27.3649 24.1278 25.8973 24.1278 24.0435C24.1278 22.375 23.5589 20.9074 22.4211 19.6407C21.324 18.4048 20.0846 17.4934 18.703 16.9064C15.249 16.999 12.4656 17.6324 10.3525 18.8065C8.23952 19.9806 7.18301 21.7262 7.18301 24.0435C7.18301 25.8663 8.01603 27.3185 9.68206 28.3999C11.3887 29.5122 13.2985 30.0683 15.4116 30.0683Z" fill="#153D7C"/>
</g>
</g>
<defs>
<clipPath id="clip0_5695_6866">
<rect width="46" height="46" fill="white"/>
</clipPath>
<clipPath id="clip1_5695_6866">
<rect width="40" height="21" fill="white" transform="translate(3 13)"/>
</clipPath>
</defs>
</svg>
