<svg width="22" height="28" viewBox="0 0 22 28" fill="none" xmlns="http://www.w3.org/2000/svg">
<path d="M11.0007 27.3337C10.2934 27.3337 9.61513 27.0527 9.11503 26.5526C8.61494 26.0525 8.33398 25.3742 8.33398 24.667H13.6673C13.6673 25.3742 13.3864 26.0525 12.8863 26.5526C12.3862 27.0527 11.7079 27.3337 11.0007 27.3337ZM21.6673 23.3337H0.333984V20.667L3.00065 19.3337V12.0003C3.00065 7.38433 4.89532 4.39099 8.33398 3.57366V0.666992H12.334C11.4646 1.81891 10.9963 3.22382 11.0007 4.66699C11.0007 5.00166 11.026 5.33633 11.0753 5.66832H11.0007C10.2 5.61647 9.39913 5.76613 8.67125 6.10364C7.94337 6.44114 7.3117 6.95572 6.83398 7.60032C6.00405 8.91307 5.59684 10.4488 5.66732 12.0003V20.667H16.334V12.0003C16.334 11.719 16.3247 11.4483 16.306 11.2003C17.1879 11.3825 18.0975 11.3857 18.9807 11.2097C18.9953 11.491 19.0007 11.759 19.0007 12.0097V19.3337L21.6673 20.667V23.3337ZM17.6673 8.66699C16.6065 8.66699 15.589 8.24556 14.8389 7.49542C14.0887 6.74527 13.6673 5.72786 13.6673 4.66699C13.6673 3.60613 14.0887 2.58871 14.8389 1.83857C15.589 1.08842 16.6065 0.666992 17.6673 0.666992C18.7282 0.666992 19.7456 1.08842 20.4957 1.83857C21.2459 2.58871 21.6673 3.60613 21.6673 4.66699C21.6673 5.72786 21.2459 6.74527 20.4957 7.49542C19.7456 8.24556 18.7282 8.66699 17.6673 8.66699Z" fill="white"/>
</svg>
